<?xml version="1.0" encoding="iso-8859-1"?>
<!-- Generator: Adobe Illustrator 19.0.0, SVG Export Plug-In . SVG Version: 6.00 Build 0)  -->
<svg version="1.1" id="Capa_1" xmlns="http://www.w3.org/2000/svg" xmlns:xlink="http://www.w3.org/1999/xlink" x="0px" y="0px"
	 viewBox="0 0 480 480" style="enable-background:new 0 0 480 480;" xml:space="preserve">
<g>
	<path style="fill:#B3E4E8;" d="M120,446H26.752l8.76-12.576c7.816-11.243,19.032-19.683,32-24.08
		c5.07-21.619,20.903-39.111,41.912-46.304L120,359.488V446z"/>
	<path style="fill:#B3E4E8;" d="M0,430h72v16H0V430z"/>
</g>
<path style="fill:#C7463B;" d="M352,214h48v80h-48V214z"/>
<path style="fill:#B3E4E8;" d="M480,446h-88V326.8l11.44,5.44c18.477,8.837,31.649,25.936,35.48,46.056
	c24.665,9.564,40.962,33.25,41.08,59.704V446z"/>
<g>
	<path style="fill:#DC4D41;" d="M400,382l-16,8H128l-16-8v-96h288V382z"/>
	<path style="fill:#DC4D41;" d="M128,182h256c8.837,0,16,7.163,16,16v32l0,0H128c-8.837,0-16-7.163-16-16v-16
		C112,189.163,119.163,182,128,182z"/>
</g>
<path style="fill:#EBEBEB;" d="M112,382h288v64H112V382z"/>
<g>
	<path style="fill:#B9B9B9;" d="M136,406h16v40h-16V406z"/>
	<path style="fill:#B9B9B9;" d="M168,422h16v24h-16V422z"/>
	<path style="fill:#B9B9B9;" d="M200,406h16v40h-16V406z"/>
	<path style="fill:#B9B9B9;" d="M232,422h16v24h-16V422z"/>
	<path style="fill:#B9B9B9;" d="M264,406h16v40h-16V406z"/>
	<path style="fill:#B9B9B9;" d="M296,422h16v24h-16V422z"/>
	<path style="fill:#B9B9B9;" d="M328,406h16v40h-16V406z"/>
	<path style="fill:#B9B9B9;" d="M360,422h16v24h-16V422z"/>
</g>
<g>
	<path style="fill:#B3E4E8;" d="M48,166c-13.255,0-24-10.745-24-24s10.745-24,24-24s24,10.745,24,24S61.255,166,48,166z"/>
	<path style="fill:#B3E4E8;" d="M136,106c-19.882,0-36-16.118-36-36s16.118-36,36-36s36,16.118,36,36
		C171.978,89.873,155.873,105.978,136,106z"/>
	<path style="fill:#B3E4E8;" d="M0,318h64v16H0V318z"/>
</g>
<path style="fill:#8ACED8;" d="M24,286h40v16H24V286z"/>
<path style="fill:#B3E4E8;" d="M0,254h64v16H0V254z"/>
<path style="fill:#8ACED8;" d="M24,222h40v16H24V222z"/>
<g>
</g>
<g>
</g>
<g>
</g>
<g>
</g>
<g>
</g>
<g>
</g>
<g>
</g>
<g>
</g>
<g>
</g>
<g>
</g>
<g>
</g>
<g>
</g>
<g>
</g>
<g>
</g>
<g>
</g>
</svg>
