<svg height="512" viewBox="0 0 64 64" width="512" xmlns="http://www.w3.org/2000/svg"><g id="flat"><path d="m51 57 2-26h-4v9a2 2 0 0 1 -4 0v2a2 2 0 0 1 -4 0v2a2 2 0 0 1 -4 0v-2a2 2 0 0 1 -4 0v-11h-16l2 26z" fill="#e33e5c"/><path d="m15 25h18v6h-18z" fill="#b11e48"/><path d="m49 25h6v6h-6z" fill="#b11e48"/><path d="m51 57h-32a4.248 4.248 0 0 0 4 4h24a4.248 4.248 0 0 0 4-4z" fill="#b11e48"/><path d="m26 54h-3a1 1 0 0 1 -.992-.876l-1-8 1.984-.248.891 7.124h2.117z" fill="#f4f4e6"/><path d="m28 52h2v2h-2z" fill="#f4f4e6"/><path d="m32 52h2v2h-2z" fill="#f4f4e6"/><path d="m33 25v17a2 2 0 0 0 4 0v2a2 2 0 0 0 4 0v-2a2 2 0 0 0 4 0v-2a2 2 0 0 0 4 0v-15z" fill="#98ecb7"/><path d="m10 3h24v6h-24z" fill="#f9bb4b"/><path d="m32 13h-20l-2-4h24z" fill="#6caade"/><path d="m20 17h4v8h-4z" fill="#6caade"/><path d="m18 13h8v4h-8z" fill="#2d75bb"/><g fill="#d3843d"><path d="m13 3h2v6h-2z"/><path d="m17 3h2v6h-2z"/><path d="m21 3h2v6h-2z"/><path d="m25 3h2v6h-2z"/><path d="m29 3h2v6h-2z"/></g><path d="m38 19h12a3 3 0 0 1 3 3v3a0 0 0 0 1 0 0h-18a0 0 0 0 1 0 0v-3a3 3 0 0 1 3-3z" fill="#6caade"/><path d="m40 15h8v4h-8z" fill="#2d75bb"/><path d="m38 9h12v6h-12z" fill="#f9bb4b"/><path d="m41 9h2v3h-2z" fill="#ffd782"/><path d="m45 9h2v3h-2z" fill="#ffd782"/><path d="m34 42v-9a1 1 0 0 0 -1-1 1 1 0 0 0 -1 1v8.812a3.145 3.145 0 0 0 2.537 3.151 2.945 2.945 0 0 0 1.579-.183 2.983 2.983 0 0 0 5.768 0 2.972 2.972 0 0 0 3.645-1.18 2.912 2.912 0 0 0 2.522.206 3.1 3.1 0 0 0 1.949-2.924v-10.882a1 1 0 0 0 -1-1 1 1 0 0 0 -1 1v11a1 1 0 0 1 -2 0v-7a1 1 0 0 0 -1-1 1 1 0 0 0 -1 1v8a1 1 0 0 1 -2 0v-8a1 1 0 0 0 -1-1 1 1 0 0 0 -1 1v10a1 1 0 0 1 -2 0v-10a1 1 0 0 0 -1-1 1 1 0 0 0 -1 1v8a1 1 0 0 1 -2 0z" fill="#67c086"/></g></svg>